<!-- Generated by IcoMoon.io -->
<svg version="1.1" xmlns="http://www.w3.org/2000/svg" width="32" height="32" viewBox="0 0 32 32">
<title>basket</title>
<path fill="#5c5c5e" d="M16 2.667c1.415 0 2.771 0.562 3.771 1.562s1.562 2.357 1.562 3.771h2.713c0.691-0 1.355 0.268 1.852 0.748s0.789 1.134 0.813 1.824l0.571 16c0.013 0.358-0.047 0.715-0.175 1.049s-0.322 0.639-0.571 0.897c-0.249 0.258-0.547 0.463-0.876 0.603s-0.684 0.212-1.042 0.212h-17.237c-0.358-0-0.712-0.072-1.042-0.212s-0.628-0.345-0.876-0.603-0.443-0.563-0.571-0.897c-0.128-0.334-0.188-0.691-0.175-1.049l0.571-16c0.025-0.69 0.316-1.344 0.813-1.824s1.161-0.748 1.852-0.748h2.713c0-1.415 0.562-2.771 1.562-3.771s2.357-1.562 3.771-1.562zM10.667 10.667h-2.713l-0.572 16h17.237l-0.572-16h-2.713v1.333c-0 0.34-0.131 0.667-0.364 0.914s-0.552 0.396-0.891 0.416c-0.339 0.020-0.673-0.090-0.934-0.309s-0.428-0.528-0.468-0.865l-0.009-0.156v-1.333h-5.333v1.333c-0 0.34-0.13 0.667-0.364 0.914s-0.552 0.396-0.891 0.416c-0.339 0.020-0.673-0.090-0.934-0.309s-0.428-0.528-0.468-0.865l-0.009-0.156v-1.333zM16 5.333c-0.673-0-1.321 0.254-1.814 0.711s-0.796 1.084-0.846 1.755l-0.007 0.2h5.333c0-0.707-0.281-1.386-0.781-1.886s-1.178-0.781-1.886-0.781z"></path>
</svg>
