<!-- Generated by IcoMoon.io -->
<svg version="1.1" xmlns="http://www.w3.org/2000/svg" width="32" height="32" viewBox="0 0 32 32">
<title>link</title>
<path fill="#5c5c5e" d="M16 0c-8.889 0-16 7.111-16 16s7.111 16 16 16c8.889 0 16-7.111 16-16s-7.111-16-16-16zM16 12.444c1.956 0 3.556 1.6 3.556 3.556s-1.6 3.556-3.556 3.556c-1.956 0-3.556-1.6-3.556-3.556s1.6-3.556 3.556-3.556zM20.978 8.889c0-1.244 1.067-2.133 2.133-2.133s2.133 1.067 2.133 2.133c0 1.067-0.889 2.133-2.133 2.133s-2.133-0.889-2.133-2.133zM16 28.444c-6.933 0-12.444-5.511-12.444-12.444h5.333c0 3.911 3.2 7.111 7.111 7.111s7.111-3.2 7.111-7.111h5.333c0 6.933-5.511 12.444-12.444 12.444z"></path>
</svg>
